<svg width="60" height="60" viewBox="0 0 256 256" fill="none" xmlns="http://www.w3.org/2000/svg">
<path d="M128 18.6515L227.167 73.611V182.389L128 237.348L28.8335 182.389V73.611L128 18.6515ZM128 0L12.5225 64V192L128 256L243.478 192V64L128 0Z" fill="#8257E5"/>
<path d="M172.238 125.018V168.816C170.432 170.818 167.648 172.967 163.889 175.262C160.178 177.508 155.49 179.437 149.826 181.048C144.162 182.659 137.497 183.465 129.831 183.465C122.751 183.465 116.33 182.342 110.568 180.096C104.807 177.801 99.8506 174.456 95.7002 170.062C91.5986 165.618 88.4248 160.198 86.1787 153.802C83.9814 147.356 82.8828 139.983 82.8828 131.683V125.75C82.8828 117.449 84.0059 110.076 86.252 103.631C88.498 97.1855 91.6475 91.7656 95.7002 87.3711C99.8018 82.9277 104.611 79.5586 110.129 77.2637C115.695 74.9688 121.799 73.8213 128.439 73.8213C138.254 73.8213 146.237 75.3838 152.39 78.5088C158.542 81.585 163.205 85.8574 166.379 91.3262C169.553 96.7461 171.481 103.021 172.165 110.149H147.482C146.994 106.634 146.066 103.655 144.699 101.214C143.381 98.7236 141.477 96.8438 138.986 95.5742C136.496 94.2559 133.273 93.5967 129.318 93.5967C126.242 93.5967 123.435 94.2559 120.896 95.5742C118.405 96.8926 116.281 98.8945 114.523 101.58C112.766 104.217 111.398 107.537 110.422 111.541C109.494 115.545 109.03 120.232 109.03 125.604V131.683C109.03 137.005 109.47 141.668 110.349 145.672C111.276 149.676 112.644 153.021 114.45 155.706C116.306 158.343 118.649 160.345 121.481 161.712C124.362 163.03 127.756 163.689 131.662 163.689C134.396 163.689 136.74 163.47 138.693 163.03C140.646 162.542 142.258 161.956 143.527 161.272C144.846 160.54 145.847 159.856 146.53 159.222V142.669H128.659V125.018H172.238Z" fill="#8257E5"/>
</svg>
