<svg width="60" height="60" viewBox="0 0 60 60" fill="none" xmlns="http://www.w3.org/2000/svg">
<path d="M4.84641 43.8751V16.1258L30 2.18579L55.1536 16.1258V43.8751L30 57.8153L4.84641 43.8751Z" fill="#161616"/>
<path d="M30 4.37145L53.2422 17.2526V42.7473L30 55.6286L6.75786 42.7474V17.2526L30 4.37145ZM30 0L2.93497 15V45L30 60L57.065 45V15L30 0Z" fill="#8257E5"/>
<path d="M38.5352 28.6035V37.3633C38.1738 37.7637 37.6172 38.1934 36.8652 38.6523C36.123 39.1016 35.1855 39.4873 34.0527 39.8096C32.9199 40.1318 31.5869 40.293 30.0537 40.293C28.6377 40.293 27.3535 40.0684 26.2012 39.6191C25.0488 39.1602 24.0576 38.4912 23.2275 37.6123C22.4072 36.7236 21.7725 35.6396 21.3232 34.3604C20.8838 33.0713 20.6641 31.5967 20.6641 29.9365V28.75C20.6641 27.0898 20.8887 25.6152 21.3379 24.3262C21.7871 23.0371 22.417 21.9531 23.2275 21.0742C24.0479 20.1855 25.0098 19.5117 26.1133 19.0527C27.2266 18.5938 28.4473 18.3643 29.7754 18.3643C31.7383 18.3643 33.335 18.6768 34.5654 19.3018C35.7959 19.917 36.7285 20.7715 37.3633 21.8652C37.998 22.9492 38.3838 24.2041 38.5205 25.6299H33.584C33.4863 24.9268 33.3008 24.3311 33.0273 23.8428C32.7637 23.3447 32.3828 22.9688 31.8848 22.7148C31.3867 22.4512 30.7422 22.3193 29.9512 22.3193C29.3359 22.3193 28.7744 22.4512 28.2666 22.7148C27.7686 22.9785 27.3438 23.3789 26.9922 23.916C26.6406 24.4434 26.3672 25.1074 26.1719 25.9082C25.9863 26.709 25.8936 27.6465 25.8936 28.7207V29.9365C25.8936 31.001 25.9814 31.9336 26.1572 32.7344C26.3428 33.5352 26.6162 34.2041 26.9775 34.7412C27.3486 35.2686 27.8174 35.6689 28.3838 35.9424C28.96 36.2061 29.6387 36.3379 30.4199 36.3379C30.9668 36.3379 31.4355 36.2939 31.8262 36.2061C32.2168 36.1084 32.5391 35.9912 32.793 35.8545C33.0566 35.708 33.2568 35.5713 33.3936 35.4443V32.1338H29.8193V28.6035H38.5352Z" fill="#8257E5"/>
</svg>
