<svg width="55" height="55" viewBox="0 0 55 55" fill="none" xmlns="http://www.w3.org/2000/svg">
<g clip-path="url(#clip0_314_10)">
<path d="M7.43522 13.927C8.87301 12.9221 11.0404 13.1148 12.3313 14.1809L10.8507 12.0288C9.65919 10.3294 10.0859 8.49083 11.7868 7.29774C13.4877 6.10924 18.3073 9.30458 18.3073 9.30458C17.1051 7.58835 17.3299 5.41326 19.0461 4.20947C20.7623 3.01024 23.13 3.42478 24.3322 5.14406L40.2703 27.6597L38.239 47.3534L21.2869 41.1707L6.50065 19.247C5.2877 17.5201 5.7068 15.1385 7.43522 13.927Z" fill="#EF9645"/>
<path d="M4.12218 26.4529C4.12218 26.4529 2.39071 23.9291 4.91601 22.1991C7.43827 20.4691 9.1682 22.9914 9.1682 22.9914L17.1999 34.7052C17.4768 34.2432 17.7796 33.7874 18.1177 33.3378L6.97022 17.0826C6.97022 17.0826 5.24028 14.5603 7.76405 12.8303C10.2863 11.1003 12.0162 13.6226 12.0162 13.6226L22.5014 28.9142C22.8914 28.5959 23.2907 28.2762 23.702 27.9627L11.5467 10.233C11.5467 10.233 9.81672 7.71073 12.3405 5.98075C14.8628 4.25077 16.5927 6.77307 16.5927 6.77307L28.748 24.4998C29.1947 24.2259 29.6367 23.9887 30.0804 23.738L18.7188 7.16925C18.7188 7.16925 16.9888 4.64693 19.5111 2.91695C22.0333 1.18696 23.7632 3.70927 23.7632 3.70927L35.7764 21.2294L37.6028 23.8938C30.0346 29.0854 29.3141 38.852 33.6382 45.1584C34.5024 46.4205 35.7642 45.5563 35.7642 45.5563C30.5745 37.9862 32.159 29.48 39.7288 24.2901L37.4972 13.1209C37.4972 13.1209 36.6637 10.178 39.605 9.34281C42.5478 8.50917 43.3829 11.4521 43.3829 11.4521L45.9603 19.1063C46.9819 22.141 48.0695 25.165 49.5089 28.0255C53.573 36.1018 51.1454 46.139 43.4823 51.3961C35.1232 57.1276 23.6961 54.9968 17.9632 46.6391L4.12218 26.4529Z" fill="#FFDC5D"/>
<path d="M18.3547 48.931C12.2365 48.931 6.05401 42.7556 6.05401 36.6444C6.05401 35.7995 5.43453 35.1166 4.58867 35.1166C3.74284 35.1166 2.99487 35.7995 2.99487 36.6444C2.99487 45.8111 9.17737 51.9865 18.3547 51.9865C19.2006 51.9865 19.8843 51.2394 19.8843 50.3947C19.8843 49.5497 19.2006 48.931 18.3547 48.931Z" fill="#737380"/>
<path d="M10.7069 51.9409C6.11825 51.9409 3.05912 48.8815 3.05912 44.2929C3.05912 43.447 2.3754 42.7632 1.52956 42.7632C0.683714 42.7632 0 43.447 0 44.2929C0 50.4112 4.5887 55 10.7069 55C11.5528 55 12.2365 54.3162 12.2365 53.4703C12.2365 52.6245 11.5528 51.9409 10.7069 51.9409ZM36.7095 2.99354C35.8653 2.99354 35.1798 3.67881 35.1798 4.52316C35.1798 5.3675 35.8653 6.05275 36.7095 6.05275C42.8278 6.05275 48.9461 11.5425 48.9461 18.2896C48.9461 19.1339 49.6313 19.8192 50.4756 19.8192C51.3198 19.8192 52.005 19.1339 52.005 18.2896C52.005 9.85534 45.887 2.99354 36.7095 2.99354Z" fill="#737380"/>
<path d="M44.3573 0C43.513 0 42.8278 0.620295 42.8278 1.46365C42.8278 2.307 43.513 3.05564 44.3573 3.05564C48.9461 3.05564 51.9409 6.45503 51.9409 10.6306C51.9409 11.4739 52.6889 12.1584 53.5347 12.1584C54.3806 12.1584 55 11.4739 55 10.6306C55 4.76832 50.4756 0 44.3573 0Z" fill="#737380"/>
</g>
<defs>
<clipPath id="clip0_314_10">
<rect width="55" height="55" fill="white"/>
</clipPath>
</defs>
</svg>
